HIERARCHY
ROOT Hips
{
	OFFSET 0.000000 0.000000 0.000000
	CHANNELS 6 Xposition Yposition Zposition Zrotation Yrotation Xrotation 
	JOINT LowerBack
	{
		OFFSET 0.000000 0.000000 0.000000
		CHANNELS 3 Zrotation Yrotation Xrotation
		JOINT Spine
		{
			OFFSET 0.028270 2.035590 -0.193380
			CHANNELS 3 Zrotation Yrotation Xrotation
			JOINT Spine1
			{
				OFFSET 0.056720 2.048850 -0.042750
				CHANNELS 3 Zrotation Yrotation Xrotation
				JOINT Neck
				{
					OFFSET 0.000000 0.000000 0.000000
					CHANNELS 3 Zrotation Yrotation Xrotation
					JOINT Neck1
					{
						OFFSET -0.054170 1.746240 0.172020
						CHANNELS 3 Zrotation Yrotation Xrotation
						JOINT Head
						{
							OFFSET 0.104070 1.761360 -0.123970
							CHANNELS 3 Zrotation Yrotation Xrotation
							End Site
							{
								OFFSET 0.000000 0.000000 0.000000
							}
						}
					}
				}
				JOINT LeftShoulder
				{
					OFFSET 0.000000 0.000000 0.000000
					CHANNELS 3 Zrotation Yrotation Xrotation
					JOINT LeftArm
					{
						OFFSET 3.362410 1.200890 -0.311210
						CHANNELS 3 Zrotation Yrotation Xrotation
						JOINT LeftForeArm
						{
							OFFSET 4.983000 -0.000000 -0.000000
							CHANNELS 3 Zrotation Yrotation Xrotation
							JOINT LeftHand
							{
								OFFSET 3.483560 -0.000000 -0.000000
								CHANNELS 3 Zrotation Yrotation Xrotation
								JOINT LeftFingerBase
								{
									OFFSET 0.000000 0.000000 0.000000
									CHANNELS 3 Zrotation Yrotation Xrotation
									JOINT LeftHandIndex1
									{
										OFFSET 0.715260 -0.000000 -0.000000
										CHANNELS 3 Zrotation Yrotation Xrotation
										End Site
										{
											OFFSET 0.000000 0.000000 0.000000
										}
									}
								}
								JOINT LThumb
								{
									OFFSET 0.000000 0.000000 0.000000
									CHANNELS 3 Zrotation Yrotation Xrotation
									End Site
									{
										OFFSET 0.000000 0.000000 0.000000
									}
								}
							}
						}
					}
				}
				JOINT RightShoulder
				{
					OFFSET 0.000000 0.000000 0.000000
					CHANNELS 3 Zrotation Yrotation Xrotation
					JOINT RightArm
					{
						OFFSET -3.136600 1.374050 -0.404650
						CHANNELS 3 Zrotation Yrotation Xrotation
						JOINT RightForeArm
						{
							OFFSET -5.241900 -0.000000 -0.000000
							CHANNELS 3 Zrotation Yrotation Xrotation
							JOINT RightHand
							{
								OFFSET -3.444170 -0.000000 -0.000000
								CHANNELS 3 Zrotation Yrotation Xrotation
								JOINT RightFingerBase
								{
									OFFSET 0.000000 0.000000 0.000000
									CHANNELS 3 Zrotation Yrotation Xrotation
									JOINT RightHandIndex1
									{
										OFFSET -0.622530 -0.000000 -0.000000
										CHANNELS 3 Zrotation Yrotation Xrotation
										End Site
										{
											OFFSET 0.000000 0.000000 0.000000
										}
									}
								}
								JOINT RThumb
								{
									OFFSET 0.000000 0.000000 0.000000
									CHANNELS 3 Zrotation Yrotation Xrotation
									End Site
									{
										OFFSET 0.000000 0.000000 0.000000
									}
								}
							}
						}
					}
				}
			}
		}
	}
}
}
MOTION
Frames: 15
Frame Time: 0.008333
-9.162484 16.927339 -1.397259 168.744555 86.255467 178.358151 -3.818234 2.056664 -6.700227 -2.126871 2.055016 -3.994835 -7.995241 2.011083 1.815807 12.944279 -7.272359 -8.721393 -3.714839 -0.287535 -0.291701 0.000000 0.000000 0.000000 -1.277586 24.174335 1.021589 -58.694678 16.277843 -21.044686 -3.910735 -28.781614 0.001753 5.924446 1.783741 0.098518 -0.167817 -0.057645 -0.000000 0.000000 0.000000 0.000000 0.000000 0.000000 0.000000 20.124750 0.877012 -0.855460 70.036354 15.933420 2.650924 2.274710 47.334604 0.009912 0.256695 7.499243 0.015898 0.044403 -0.258550 0.000000 0.000000 0.000000 0.000000 0.000000 0.000000 0.000000 
-8.991759 16.933040 -1.387015 163.803133 85.992179 173.320161 -4.198352 1.937256 -6.613005 -2.201270 1.979842 -3.982469 -7.981172 1.936094 1.791509 12.960161 -7.315699 -8.735398 -3.713220 -0.286954 -0.297101 0.000000 0.000000 0.000000 -1.319529 23.972568 1.017941 -58.598073 15.902160 -20.947260 -3.921097 -28.576992 0.001672 5.994030 1.785573 0.099614 -0.166735 -0.056015 -0.000000 0.000000 0.000000 0.000000 0.000000 0.000000 0.000000 20.153767 0.755412 -0.858461 70.756383 15.488571 2.061692 2.303083 46.441820 0.009365 0.060817 7.535268 0.002481 0.046991 -0.254935 0.000000 0.000000 0.000000 0.000000 0.000000 0.000000 0.000000 
-8.826047 16.939339 -1.379789 159.958536 85.746259 169.379684 -4.496923 1.819652 -6.493267 -2.253987 1.899407 -3.961716 -7.952698 1.856330 1.768788 12.930726 -7.346998 -8.758828 -3.708025 -0.285905 -0.304975 0.000000 0.000000 0.000000 -1.416293 23.780486 1.018735 -58.578967 15.471835 -20.839957 -3.925789 -28.386200 0.001615 6.080636 1.782143 0.100709 -0.165230 -0.054246 -0.000000 0.000000 0.000000 0.000000 0.000000 0.000000 0.000000 20.117084 0.641261 -0.856877 71.444399 15.075994 1.503821 2.330157 45.500865 0.008791 -0.144005 7.557222 -0.011743 0.049631 -0.250894 0.000000 0.000000 0.000000 0.000000 0.000000 0.000000 0.000000 
-8.665038 16.946405 -1.375786 156.941169 85.538808 166.259516 -4.713638 1.707164 -6.341006 -2.285303 1.816381 -3.932438 -7.912650 1.774383 1.750413 12.864212 -7.372213 -8.793572 -3.700701 -0.284483 -0.315884 0.000000 0.000000 0.000000 -1.560423 23.610086 1.021951 -58.637666 14.977308 -20.723943 -3.925186 -28.199781 0.001593 6.185048 1.769546 0.101503 -0.163319 -0.052342 -0.000000 0.000000 0.000000 0.000000 0.000000 0.000000 0.000000 20.032311 0.530547 -0.850207 72.081972 14.698719 0.999697 2.356888 44.518975 0.008215 -0.354751 7.568574 -0.026371 0.052346 -0.246454 0.000000 0.000000 0.000000 0.000000 0.000000 0.000000 0.000000 
-8.508177 16.954461 -1.375849 154.828089 85.389237 164.039968 -4.821552 1.602917 -6.168293 -2.290033 1.730909 -3.896290 -7.863911 1.690376 1.740125 12.764073 -7.392376 -8.840640 -3.692613 -0.282817 -0.329929 0.000000 0.000000 0.000000 -1.754386 23.480325 1.025044 -58.771129 14.403937 -20.599490 -3.919955 -28.002949 0.001613 6.306040 1.743176 0.101798 -0.161027 -0.050308 -0.000000 0.000000 0.000000 0.000000 0.000000 0.000000 0.000000 19.908752 0.423839 -0.839978 72.649589 14.348957 0.564271 2.384361 43.510407 0.007673 -0.564040 7.569185 -0.040803 0.055119 -0.241561 0.000000 0.000000 0.000000 0.000000 0.000000 0.000000 0.000000 
-8.355190 16.963711 -1.378752 152.970420 85.298250 162.058629 -4.864706 1.505603 -5.968131 -2.279201 1.646175 -3.855401 -7.810511 1.607251 1.726441 12.642195 -7.402746 -8.888611 -3.686813 -0.281297 -0.344236 0.000000 0.000000 0.000000 -1.991784 23.338900 1.028362 -58.964875 13.832997 -20.448369 -3.908113 -27.854700 0.001675 6.442975 1.717748 0.102392 -0.158292 -0.048533 -0.000000 0.000000 0.000000 0.000000 0.000000 0.000000 0.000000 19.770267 0.327403 -0.821087 73.147203 14.013469 0.195558 2.413217 42.477091 0.007186 -0.770592 7.575892 -0.055137 0.057933 -0.236469 0.000000 0.000000 0.000000 0.000000 0.000000 0.000000 0.000000 
-8.205234 16.974434 -1.385704 151.733659 85.280261 160.698311 -4.803440 1.417533 -5.766158 -2.244981 1.560506 -3.811648 -7.754667 1.523578 1.721944 12.502253 -7.411436 -8.944700 -3.683386 -0.279889 -0.360511 0.000000 0.000000 0.000000 -2.268250 23.239064 1.028066 -59.221216 13.196386 -20.281224 -3.892302 -27.694270 0.001784 6.592360 1.678122 0.102186 -0.155205 -0.046754 -0.000000 0.000000 0.000000 0.000000 0.000000 0.000000 0.000000 19.623635 0.233244 -0.799493 73.556288 13.690386 -0.092243 2.444741 41.436131 0.006794 -0.965330 7.583160 -0.068672 0.060769 -0.231018 0.000000 0.000000 0.000000 0.000000 0.000000 0.000000 0.000000 
-8.057802 16.986785 -1.396011 150.833253 85.332891 159.675455 -4.660942 1.337297 -5.567859 -2.193497 1.474899 -3.767464 -7.699166 1.440195 1.722564 12.352942 -7.417090 -9.002522 -3.683893 -0.278815 -0.377091 0.000000 0.000000 0.000000 -2.575579 23.158636 1.023729 -59.530625 12.528949 -20.089373 -3.872269 -27.541468 0.001935 6.750493 1.630448 0.101480 -0.151772 -0.045119 -0.000000 0.000000 0.000000 0.000000 0.000000 0.000000 0.000000 19.483985 0.142589 -0.774220 73.878435 13.370108 -0.305889 2.479391 40.393422 0.006509 -1.145483 7.600258 -0.081406 0.063597 -0.225337 0.000000 0.000000 0.000000 0.000000 0.000000 0.000000 0.000000 
-7.912291 17.000780 -1.409300 150.192948 85.453201 158.923980 -4.447606 1.263990 -5.387141 -2.127917 1.389401 -3.725084 -7.646361 1.357134 1.731100 12.201916 -7.416452 -9.060617 -3.689066 -0.278166 -0.393623 0.000000 0.000000 0.000000 -2.898716 23.110207 1.014649 -59.889100 11.812970 -19.870630 -3.849476 -27.373380 0.002108 6.913605 1.574041 0.100274 -0.148061 -0.043517 -0.000000 0.000000 0.000000 0.000000 0.000000 0.000000 0.000000 19.362257 0.058814 -0.748239 74.115579 13.038155 -0.465409 2.516920 39.368318 0.006352 -1.300495 7.624071 -0.092441 0.066275 -0.219441 0.000000 0.000000 0.000000 0.000000 0.000000 0.000000 0.000000 
-7.768707 17.016453 -1.424745 149.607307 85.632567 158.232951 -4.183749 1.195535 -5.218667 -2.052837 1.304023 -3.685672 -7.596727 1.274105 1.738989 12.051709 -7.423238 -9.111325 -3.698992 -0.278059 -0.407939 0.000000 0.000000 0.000000 -3.242826 23.034419 1.000702 -60.286823 11.128662 -19.617305 -3.822300 -27.247574 0.002304 7.072511 1.521679 0.099068 -0.144051 -0.042269 -0.000000 0.000000 0.000000 0.000000 0.000000 0.000000 0.000000 19.262545 -0.035785 -0.717042 74.276243 12.711416 -0.556577 2.558532 38.336392 0.006310 -1.448718 7.679096 -0.103473 0.069052 -0.213534 0.000000 0.000000 0.000000 0.000000 0.000000 0.000000 0.000000 
-7.626380 17.033598 -1.441985 149.079139 85.862627 157.622783 -3.878905 1.130392 -5.081352 -1.970892 1.217800 -3.651329 -7.551823 1.190176 1.752944 11.908990 -7.427545 -9.156065 -3.713551 -0.278471 -0.420481 0.000000 0.000000 0.000000 -3.583339 22.967619 0.982344 -60.723323 10.420625 -19.329751 -3.793506 -27.111879 0.002477 7.223181 1.471311 0.097761 -0.139881 -0.041026 -0.000000 0.000000 0.000000 0.000000 0.000000 0.000000 0.000000 19.190270 -0.130667 -0.686511 74.368586 12.365968 -0.623567 2.602522 37.332185 0.006388 -1.571844 7.746007 -0.113003 0.071635 -0.207539 0.000000 0.000000 0.000000 0.000000 0.000000 0.000000 0.000000 
-7.485228 17.051947 -1.460176 148.448171 86.130006 156.932172 -3.552577 1.065953 -4.972387 -1.886150 1.129894 -3.622389 -7.511290 1.104351 1.769239 11.775845 -7.437389 -9.191320 -3.731929 -0.279375 -0.430263 0.000000 0.000000 0.000000 -3.914355 22.879359 0.960614 -61.193131 9.723305 -19.004299 -3.762896 -26.988748 0.002608 7.357557 1.432692 0.096854 -0.135604 -0.039835 -0.000000 0.000000 0.000000 0.000000 0.000000 0.000000 0.000000 19.144969 -0.237005 -0.655237 74.405447 12.010144 -0.673486 2.648586 36.347332 0.006562 -1.680374 7.831403 -0.122030 0.074122 -0.201560 0.000000 0.000000 0.000000 0.000000 0.000000 0.000000 0.000000 
-7.345227 17.071138 -1.478655 147.578760 86.420099 156.024787 -3.221851 0.999642 -4.889073 -1.802107 1.039231 -3.598169 -7.474803 1.015569 1.788296 11.654163 -7.446437 -9.216134 -3.753280 -0.280685 -0.437152 0.000000 0.000000 0.000000 -4.219977 22.774798 0.937649 -61.694880 9.019030 -18.639871 -3.731774 -26.858547 0.002664 7.470743 1.406529 0.096447 -0.131317 -0.038491 -0.000000 0.000000 0.000000 0.000000 0.000000 0.000000 0.000000 19.123734 -0.349496 -0.625491 74.400963 11.634652 -0.741119 2.694962 35.395940 0.006812 -1.771229 7.927051 -0.130057 0.076390 -0.195626 0.000000 0.000000 0.000000 0.000000 0.000000 0.000000 0.000000 
-7.206275 17.090750 -1.496687 146.295999 86.717316 154.723963 -2.902916 0.928627 -4.827438 -1.721793 0.944441 -3.578404 -7.441297 0.922346 1.807587 11.544720 -7.463878 -9.229521 -3.776236 -0.282295 -0.440824 0.000000 0.000000 0.000000 -4.494442 22.630448 0.914873 -62.223304 8.332473 -18.232687 -3.700065 -26.741194 0.002618 7.555469 1.403234 0.097139 -0.127095 -0.036981 -0.000000 0.000000 0.000000 0.000000 0.000000 0.000000 0.000000 19.122858 -0.480081 -0.596050 74.368462 11.248736 -0.832594 2.740990 34.471300 0.007103 -1.855707 8.031502 -0.137882 0.078538 -0.189792 0.000000 0.000000 0.000000 0.000000 0.000000 0.000000 0.000000 
-7.068402 17.110380 -1.513783 144.414308 87.006842 152.839305 -2.608800 0.850223 -4.780477 -1.647485 0.844113 -3.561936 -7.409568 0.823249 1.825856 11.447089 -7.491667 -9.231665 -3.799427 -0.284070 -0.441357 0.000000 0.000000 0.000000 -4.730010 22.438241 0.894249 -62.774241 7.667233 -17.780415 -3.668190 -26.639892 0.002449 7.607149 1.427202 0.099231 -0.123015 -0.035210 -0.000000 0.000000 0.000000 0.000000 0.000000 0.000000 0.000000 19.136143 -0.632317 -0.566964 74.320425 10.854223 -0.963643 2.785471 33.575035 0.007404 -1.939692 8.137428 -0.145806 0.080582 -0.184082 0.000000 0.000000 0.000000 0.000000 0.000000 0.000000 0.000000 
